<?xml version="1.0" encoding="utf-8"?>
<!-- Generator: Adobe Illustrator 26.0.1, SVG Export Plug-In . SVG Version: 6.00 Build 0)  -->
<svg version="1.1" id="Слой_1" xmlns="http://www.w3.org/2000/svg" xmlns:xlink="http://www.w3.org/1999/xlink" x="0px" y="0px"
	 viewBox="0 0 30 30" style="enable-background:new 0 0 30 30;" xml:space="preserve">
<style type="text/css">
	.st0{fill:#312783;}
	.st1{fill:url(#SVGID_1_);}
	.st2{fill:#FFED00;}
</style>
<g transform="translate(0.000000,512.000000) scale(0.100000,-0.100000)">
	<path class="st0" d="M226.7,4989.4l-1.8,0.4v33.3l2,0.6c3.2,1.1,5.2,2.2,7.6,4.5c4.5,4.3,6.5,8.6,6.5,14.7c0,5.6-1.7,9.9-5.6,13.9
		c-4,4.1-8.5,6-14.3,6c-6.1-0.1-10.4-2-14.7-6.5c-2.3-2.5-3.4-4.4-4.5-7.6l-0.6-2H95.4l-0.6,2c-0.4,1-1,2.6-1.5,3.5
		c-1.1,2.2-4.7,6.1-7,7.6c-3.7,2.4-9,3.5-13.7,2.9c-7.1-0.9-13.6-6.5-16.1-13.8c-0.6-1.8-0.8-3.2-0.8-6c0-6.1,2-10.4,6.5-14.7
		c2.4-2.3,4.4-3.4,7.7-4.5l1.8-0.6v-33.3l-1.7-0.4c-8.4-2.3-14.3-10.3-14.3-19.3v-0.1h7.9v0.1c0,3.7,0.7,5.6,3.1,8.2
		c3.4,3.7,8.4,4.9,13.1,3.2c1.7-0.6,4.3-2.4,5.3-3.7c2-2.7,2.4-4.1,2.4-7.7v-0.1H120v20.5h56.6V4970h32.5c0,0.1,0,0.1,0,0.2
		c0,3,0.1,3.6,1,5.3c3.2,6,9.9,8.4,16,5.7c2.4-1.1,5-3.7,6.2-6.3c0.6-1.3,0.8-2.3,0.8-4.7c0-0.1,0-0.1,0-0.2h7.9v0.1
		C241,4979.1,235.1,4987.1,226.7,4989.4z M63.8,5039.7c-2.5,8.7,6.3,17.5,15,15c9.1-2.7,12-13.7,5.3-20.3
		C77.5,5027.7,66.5,5030.6,63.8,5039.7z M129.5,5015.7c-0.9-1.7-0.9-2.1-1.1-9.5l-0.1-7.7l-6.7-0.1c-5-0.1-7.1-0.3-7.6-0.6
		c-1.7-1.2-1.8-1.4-1.9-12.9l-0.1-10.8l-8.3,0.1l-8.4,0.1l-0.9,2.5c-2,5.9-6.5,10.3-12.6,12.4l-2.2,0.8l-0.1,16.6l-0.1,16.5l1.7,0.6
		c2.8,0.8,4.2,1.5,6.6,3.2c3.4,2.5,5.8,6.1,7.1,10.5l0.6,1.7h49v-8.3h-0.1v-8.3l-3.7-0.2c-3.1,0-4-0.2-5.5-1
		C132.8,5020.2,130.6,5017.9,129.5,5015.7z M160.7,4998.5H136v6.2c0,10.2-0.1,10.1,12.3,10.1c7.4,0,8.7-0.1,9.8-0.7
		c2.2-1,2.6-2.2,2.6-9.4V4998.5z M217.2,5006.6l-0.1-16.6l-2.2-0.8c-6.1-2.1-10.6-6.5-12.7-12.4l-0.8-2.5l-8.4-0.1l-8.3-0.1
		l-0.1,10.8c-0.1,11.5-0.2,11.7-1.9,12.9c-0.6,0.3-2.6,0.5-7.6,0.6l-6.8,0.1l-0.1,7.7c-0.1,7.4-0.1,7.8-1,9.5
		c-1.1,2.3-3.4,4.5-5.6,5.6c-1.5,0.8-2.4,1-5.5,1l-3.8,0.2v16.6h49l0.5-1.7c1.3-4.4,3.8-8,7.2-10.5c2.4-1.7,3.8-2.4,6.6-3.2l1.7-0.6
		L217.2,5006.6z M212.5,5034.4c-6.5,6.5-3.9,17.1,5.2,20.2c2,0.7,6,0.4,8.4-0.7c5.2-2.4,8.3-8.7,6.8-14
		C230.3,5030.7,219.3,5027.6,212.5,5034.4z M158,4973.6c-1.8,0.8-17.5,0.8-19.3,0c-1.2-0.5-2.3-2.1-2.3-3.5v-0.1h23.9v0.1
		C160.3,4971.5,159.2,4973.1,158,4973.6z"/>
</g>
<linearGradient id="SVGID_1_" gradientUnits="userSpaceOnUse" x1="15" y1="30" x2="15" y2="-9.094947e-13">
	<stop  offset="0.499" style="stop-color:#FFEF26"/>
	<stop  offset="0.499" style="stop-color:#FCE53C"/>
	<stop  offset="0.4993" style="stop-color:#C9B471"/>
	<stop  offset="0.4995" style="stop-color:#9D8A83"/>
	<stop  offset="0.4997" style="stop-color:#796888"/>
	<stop  offset="0.5" style="stop-color:#5D4E88"/>
	<stop  offset="0.5002" style="stop-color:#493B85"/>
	<stop  offset="0.5005" style="stop-color:#3C3084"/>
	<stop  offset="0.5007" style="stop-color:#342984"/>
	<stop  offset="0.501" style="stop-color:#312783"/>
</linearGradient>
<path class="st1" d="M0,15c0,8.28,6.72,15,15,15c8.28,0,15-6.72,15-15 M30,15c0-8.28-6.72-15-15-15C6.72,0,0,6.72,0,15 M24.33,23.76
	c-0.17,0.18-0.34,0.35-0.52,0.52c-2.29,2.18-5.39,3.51-8.81,3.51C7.93,27.79,2.2,22.07,2.2,15C2.2,7.93,7.93,2.21,15,2.21
	S27.8,7.93,27.8,15C27.8,18.39,26.48,21.47,24.33,23.76z"/>
<g transform="translate(0.000000,512.000000) scale(0.100000,-0.100000)">
	<path class="st2" d="M226.9,4916.6l-2,0.6v33.2l1.8,0.5c8.4,2.3,14.3,10.2,14.3,19.1h-7.9c0-3.6-0.7-5.5-3.1-8
		c-5.9-6.3-15.8-4.9-19.9,2.8c-0.9,1.7-1,2.3-1,5.2h-32.5v-28.2h-24.3v24.4h2.2c1.2,0,2.8,0.2,3.5,0.5c1.2,0.5,2.2,2,2.3,3.3h-23.9
		c0.1-1.3,1.1-2.8,2.3-3.3c0.7-0.3,2.3-0.5,3.5-0.5h2.2v-24.4H120v28.2H87.5c0-2.9-0.1-3.5-1-5.2c-4-7.7-14-9.1-19.8-2.8
		c-2.4,2.5-3.1,4.5-3.1,8h-7.9c0-8.9,5.9-16.8,14.3-19.1l1.7-0.5v-33.2l-1.9-0.6c-3.2-1.1-5.2-2.3-7.6-4.5
		c-4.5-4.3-6.5-8.6-6.5-14.8c0-5.7,1.9-10.2,6-14.2c4-3.9,8.2-5.6,13.9-5.6c6,0,10.4,2,14.7,6.5c2.2,2.4,3.4,4.4,4.5,7.7l0.6,1.8
		h33.2l0.5-1.7c2.3-8.4,10.3-14.3,19.2-14.3c9,0,17,5.9,19.3,14.3l0.5,1.7h33.2l0.6-1.8c1.1-3.3,2.2-5.3,4.5-7.7
		c4.3-4.5,8.6-6.5,14.7-6.5c4.4,0,8.1,1.1,11.4,3.4c1,0.8,1.9,1.6,2.9,2.5c0.8,0.9,1.6,1.8,2.2,2.7c2.4,3.3,3.4,6.8,3.4,11.2
		c0,6.1-2,10.5-6.5,14.8C232.1,4914.3,230.1,4915.5,226.9,4916.6z M70.5,4886.4c-8,3.7-9.5,14.6-2.6,20.4c3.1,2.7,8,3.5,12.1,2
		c2.8-1.1,5.9-4.1,7-7C90.7,4891.5,80.4,4881.9,70.5,4886.4z M129.3,4903.6l-0.8-2.2l-16.6-0.1l-16.5-0.1l-0.6,1.7
		c-0.8,2.8-1.5,4.2-3.2,6.6c-2.5,3.4-6.1,5.9-10.5,7.2l-1.7,0.5v16.6l0.1,16.6l2.3,0.7c5.9,2,10.5,6.4,12.5,12
		c0.4,1.2,0.8,2.4,0.9,2.6c0.1,0.4,2.1,0.5,8.5,0.5h8.3v-14.4c0-12.4,0.1-14.6,0.6-15.6c1.1-2.3,1.4-2.3,17.4-2.3h14.3v-8.4
		l-0.1-8.4l-2.5-0.8C135.8,4914.2,131.4,4909.7,129.3,4903.6z M156.5,4888.5c-2.6-2.4-4.5-3.1-8.2-3.1c-3.6,0-5.6,0.7-8.1,3.1
		c-7,6.5-4.4,17.7,4.9,20.7c0.5,0.2,2.2,0.3,3.8,0.2c2.3-0.1,3.3-0.3,4.8-1.1C161.4,4904.4,162.8,4894.3,156.5,4888.5z
		 M205.1,4909.5c-1.8-2.4-2.4-3.8-3.3-6.6l-0.5-1.7h-16.6l-16.6,0.2l-0.7,2.2c-2.1,6.1-6.6,10.6-12.4,12.6l-2.5,0.9l-0.1,8.4
		l-0.1,8.3h14.4c12.3,0,14.5,0.1,15.6,0.6c2.3,1.1,2.3,1.4,2.3,17.4v14.3h8.4l8.4-0.1l0.8-2.5c2.1-5.9,6.6-10.3,12.7-12.4l2.2-0.8
		l0.1-16.6l0.1-16.5l-1.7-0.6C211.2,4915.3,207.6,4912.9,205.1,4909.5z M226.1,4886.4c-8-3.7-17.2,2.1-17.2,11
		c0,8.5,8.5,14.4,16.5,11.4c4.9-1.8,8.2-7.1,7.8-12.3C232.8,4892.2,230,4888.2,226.1,4886.4z"/>
</g>
</svg>
