<?xml version="1.0" encoding="utf-8"?>
<!-- Generator: Adobe Illustrator 26.0.1, SVG Export Plug-In . SVG Version: 6.00 Build 0)  -->
<svg version="1.1" id="Слой_2" xmlns="http://www.w3.org/2000/svg" xmlns:xlink="http://www.w3.org/1999/xlink" x="0px" y="0px"
	 viewBox="0 0 512 512" style="enable-background:new 0 0 512 512;" xml:space="preserve">
<style type="text/css">
	.st0{fill:none;stroke:#FFFFFF;stroke-width:5;stroke-miterlimit:10;}
	.st1{fill:#FFFFFF;}
</style>
<circle class="st0" cx="331" cy="243.3" r="114.7"/>
<g transform="translate(0.000000,512.000000) scale(0.100000,-0.100000)">
	<path class="st1" d="M2669.4,3469.6c-60.6-7.7-115.4-54.2-136.2-116c-5.2-15.3-6.7-26.9-6.7-50.5c0.3-51.4,16.5-88.1,54.5-124
		c20.8-19.3,37.6-29.1,64.9-38l15.9-5.5v-140.2v-139.9l-14.4-4c-71-19.3-120.9-86.6-120.9-162.2c0-75.6,49.9-142.9,120.9-162.2
		l14.4-4v-139.9v-140.2l-16.2-5.5c-26.9-8.9-43.8-18.7-64.6-38c-38-35.8-54.2-72.5-54.5-124c0-48.4,15.9-86.6,50.2-120
		c34.3-33.4,69.8-47.4,117.2-47.4c51.4,0.3,88.1,16.5,124,54.5c19.3,20.8,29.1,37.6,38,64.9l5.5,15.9l140.2,0h139.9l4-14.4
		c19.3-71,86.6-120.9,162.2-120.9c75.6,0,142.9,49.9,162.2,120.9l4,14.4h139.9l140.2,0l5.5-15.9c8.9-27.2,18.7-44.1,38-64.9
		c35.8-38,72.5-54.2,124-54.5c48.4,0,86.6,15.9,120,50.2c33.4,34.3,47.4,69.8,47.4,117.2c-0.3,51.4-16.5,88.1-54.5,124
		c-20.8,19.3-37.6,29.1-64.6,38l-16.2,5.5v140.2v139.9l14.7,4c70.7,19.3,120.6,86.6,120.6,162.2c0,75.6-49.9,142.9-120.6,162.2
		l-14.7,4v139.9v140.2l16.2,5.5c26.9,8.9,43.8,18.7,64.6,38c38,35.8,54.2,72.5,54.5,124c0,47.4-14.1,82.9-47.4,117.2
		c-33.4,34.3-71.6,50.2-120,50.2c-51.4-0.3-88.1-16.5-124-54.5c-19.3-20.8-29.1-37.6-38-64.6l-5.5-16.2l-446.3,0h-446.3l-5.5,16.2
		c-2.8,8.6-8.3,22.3-12.2,30.3c-9.2,18.4-39.8,51.1-59.4,63.7C2753.2,3465.3,2708.8,3474.8,2669.4,3469.6z M2721.1,3402
		c76.5-22.3,101-115.1,45-171.1s-148.8-31.5-171.1,45C2573.6,3349.3,2647.6,3423.4,2721.1,3402z M3963.1,3395.8
		c44.1-20.2,69.8-73.2,57.5-117.8c-21.7-78-115.1-103.8-171.7-47.1c-55.4,55.4-32.8,144.8,43.2,170.8
		C3909.6,3407.5,3943.2,3404.7,3963.1,3395.8z M3273.9,3200.9v-70.1l-31.2-1.2c-26.3-0.6-34-2.1-46.5-8.6
		c-19.3-9.8-38-28.5-47.7-47.7c-7.3-14.4-7.7-17.8-8.6-79.9l-0.9-64.6l-57.2-1.2c-42.2-0.6-59.1-2.1-63.7-5.2
		c-14.7-9.8-15-11.9-15.9-108.4l-0.9-90.9l-70.4,0.6l-70.4,0.9l-7.3,20.8c-17.1,49.6-55.4,86.9-106.8,104.7l-18.7,6.4l-0.9,139.9
		L2726,3136l14.4,4.6c23.9,7,35.2,12.9,55.4,27.5c28.8,21.1,49.6,51.4,60.6,88.5l4.6,14.4l206.3,0h206.6V3200.9z M3758.7,3256.6
		c11-37,31.8-67.3,60.6-88.5c20.2-14.7,31.5-20.5,55.4-27.5l14.4-4.6l-0.6-139.6l-0.9-139.9l-18.7-6.4
		c-51.4-17.8-89.7-55.1-106.8-104.7l-7.3-20.8l-70.4-0.9l-70.4-0.6l-0.9,90.9c-0.9,96.4-1.2,98.6-15.9,108.4
		c-4.6,3.1-21.4,4.6-63.7,5.2l-57.2,1.2l-0.9,64.6c-0.9,62.1-1.2,65.5-8.6,79.9c-9.8,19.3-28.5,38-47.7,47.7
		c-12.5,6.4-20.2,8-46.2,8.6l-31.5,1.2v70.1v70.1h206.6l206.3,0L3758.7,3256.6z M3390.2,3060.4c18.7-9.2,21.4-19.3,21.4-79.3v-53
		h-104.1h-104.1v53c0,85.4-0.6,84.8,104.1,84.8C3370,3065.9,3381,3065.3,3390.2,3060.4z M3546.3,2655.8v-205.1h-102.5h-102.5v102.5
		v102.5h18.4c10.1,0,23.3,1.8,29.1,4.3c10.7,4.6,19.9,18.1,19.9,29.4c0,11.3-9.2,24.8-19.9,29.4c-15,6.1-147.2,6.1-162.2,0
		c-10.7-4.6-19.9-18.1-19.9-29.4c0-11.3,9.2-24.8,19.9-29.4c5.8-2.4,19-4.3,29.1-4.3h18.4l0-102.5v-102.5h-102.5h-102.5v205.1v205.1
		h238.7h238.7V2655.8z M2730,2785.5c14.4-5.2,36.1-20.5,44.1-31.5c17.1-23,20.8-34.3,20.8-64.6c0-26-0.9-30.9-8.6-45.3
		c-34-64.9-118.1-76.8-167.1-23.6c-20.2,21.7-26.3,38-26.3,68.9s6.1,47.1,26.3,68.9C2647.9,2789.2,2689.9,2799.6,2730,2785.5z
		 M3963.1,2782.2c20.8-9.2,42.5-31.2,52.3-52.3c5.2-11,6.7-20.2,6.7-40.4c0-30.9-6.1-47.1-26.3-68.9c-49-53.3-133.1-41.3-167.1,23.6
		c-7.7,14.4-8.6,19.3-8.6,45.3s0.9,30.9,8.6,45.3C3855.4,2785.2,3911.4,2805.1,3963.1,2782.2z M3001.5,2534.6
		c0-104.1,0.6-122.7,4.9-131.3c9.2-19.6,11.3-19.9,146.3-19.9l121.2,0l-0.6-70.4l-0.9-70.7l-20.8-7.3
		c-49.6-17.1-86.9-55.4-104.7-106.8l-6.4-18.7l-139.9-0.9l-139.6-0.6l-4.6,14.4c-7,23.9-12.9,35.2-27.5,55.4
		c-21.1,28.8-51.4,49.6-88.5,60.6l-14.4,4.6l0.6,139.6l0.9,139.9l18.7,6.4c49.9,17.1,88.5,54.2,105.6,101c3.4,10.1,7,20.2,7.7,22.3
		c0.9,2.8,17.8,3.7,71.6,3.7h70.4V2534.6z M3762.1,2633.4c17.1-49.6,55.4-86.9,106.8-104.7l18.7-6.4l0.9-139.9l0.6-139.6l-14.4-4.6
		c-37-11-67.3-31.8-88.5-60.6c-14.7-20.2-20.5-31.5-27.5-55.4l-4.6-14.4l-139.6,0.6l-139.9,0.9l-6.4,18.7
		c-17.8,51.4-55.1,89.7-104.7,106.8l-20.8,7.3l-0.9,70.7l-0.6,70.4h121.2c104.1,0,122.7,0.6,131.3,4.9
		c19.6,9.2,19.9,11.3,19.9,146.3l0,121.2l70.4-0.6l70.7-0.9L3762.1,2633.4z M2731.2,2171.9c24.2-9.2,49.6-34.6,58.8-58.8
		c31.8-86.6-55.1-168-138.3-129.8c-68.3,31.2-80.2,122.7-22.6,172C2655.6,2178,2696.3,2184.7,2731.2,2171.9z M3352.8,2167.9
		c64.6-33.1,76.8-117.8,23.6-166.8c-21.7-20.2-38-26.3-68.9-26.3s-47.1,6.1-68.9,26.3c-59.1,54.5-36.7,149.1,41.3,174.5
		c4.3,1.5,18.7,2.1,32.1,1.5C3331.4,2176.4,3340,2174.6,3352.8,2167.9z M3957.3,2172.2c41.6-15.6,69.5-60,65.5-104.1
		c-3.1-36.4-26.3-69.8-59.4-84.8c-67.9-31.2-144.8,17.8-144.8,92.4C3818.7,2147.4,3890.3,2197.3,3957.3,2172.2z"/>
</g>
</svg>
